<?xml version="1.0" encoding="utf-8"?>
<!-- Generator: Adobe Illustrator 26.1.0, SVG Export Plug-In . SVG Version: 6.00 Build 0)  -->
<svg version="1.1" id="Слой_1" xmlns="http://www.w3.org/2000/svg" xmlns:xlink="http://www.w3.org/1999/xlink" x="0px" y="0px"
	 viewBox="0 0 44 44" style="enable-background:new 0 0 44 44;" xml:space="preserve">
<style type="text/css">
	.st0{fill-rule:evenodd;clip-rule:evenodd;fill:#FFFFFF;}
</style>
<path class="st0" d="M22.7,11.3c-5.5-0.3-9.8,3.5-10.8,9.5c-0.8,5,0.6,11,1.8,11.3c0.5,0.1,1.7-0.8,2.6-1.6c0.2-0.2,0.4-0.2,0.6-0.1
	c1.4,0.8,2.9,1.5,4.7,1.6c5.7,0.3,10.7-4.1,11-9.8S28.3,11.6,22.7,11.3z M13.4,40.2c-0.2-0.2-0.5-0.1-0.7,0.1
	c-2.4,2.6-8.5,4.4-8.8,0.9c0-2.7-0.6-5-1.3-7.6C1.8,30.4,0.9,27,0.9,21.9c0-12,9.8-21,21.5-21s20.8,9.4,20.8,21.1
	s-9.4,20.9-20.7,20.9C18.5,42.9,16.5,42.4,13.4,40.2z"/>
</svg>
